# xmcd
#
# Track frame offsets:
#	150
#	13549
#	31849
#	45255
#	64514
#	79349
#	96304
#	118079
#	133402
#	155145
#
# Disc length: 2313 seconds
#
# Revision: 0
# Processed by: cddbd v1.5.2PL0 Copyright (c) Steve Scherf et al.
# Submitted via: dBpowerAMP V4.0
#
DISCID=8009070a
DTITLE=Blackhawk - Super Hits
DYEAR=2007
DGENRE=Country
TTITLE0=Big Guitar
TTITLE1=That's Just About Right
TTITLE2=Days Of America
TTITLE3=I'm Not Strong Enough To Say No
TTITLE4=Like There Ain't No Yesterday
TTITLE5=Nobody Knows What To Say
TTITLE6=Think Again
TTITLE7=Goodbye Says It All
TTITLE8=Brothers Of The Southland
TTITLE9=Leavin' The Land Of The Broken Hearted
EXTD=
EXTT0=
EXTT1=
EXTT2=
EXTT3=
EXTT4=
EXTT5=
EXTT6=
EXTT7=
EXTT8=
EXTT9=
PLAYORDER=
